# xmcd
# 
# Track frame offsets:
#     150
#     20605
#     38435
#     59383
#     77666
#     95546
#     107410
#     124410
#     141662
#     159393
#     194236
#     213477
#     242209
# 
# Disc length: 3315
# 
# Revision: 5
# Processed by: cddbd v1.5.2PL0 Copyright (c) Steve Scherf et al.
# Submitted via: BonkEnc v1.0.8
# 
DISCID=bb0cf10d
DTITLE=High School Musical - High School Musical 3 - Senior Year
DYEAR=2008
DGENRE=Soundtrack
TTITLE0=Now Or Never (High School Musical 3 Cast )
TTITLE1=Right Here, Right Now (Zac Efron and Vanessa Hudgens)
TTITLE2=I Want It All (Ashley Tisdale and Lucas Grabeel)
TTITLE3=Can I Have This Dance (Zac Efron and Vanessa Hudgens)
TTITLE4=A Night To Remember (High School Musical 3 Cast)
TTITLE5=Lucas Grabeel, Olesya Rulin, Zac Efron and Vanessa Hudgens - Just Wanna Be With You
TTITLE6=The Boys Are Back (Zac Efron and Corbin Bleu)
TTITLE7=Walk Away (Vanessa Hudgens)
TTITLE8=Scream (Zac Efron)
TTITLE9=Senior Year Spring Musical: Last Chance (Olesya Rulin and Lucas Grabeel)
TTITLE10=We're All In This Together-Graduation Mix (High School Musical 3 Cast)
TTITLE11=High School Musical (High School Musical 3 Cast)
TTITLE12=Various Artist - Data Track
EXTD=YEAR: 2008
EXTT0=
EXTT1=
EXTT2=
EXTT3=
EXTT4=
EXTT5=
EXTT6=
EXTT7=
EXTT8=
EXTT9=
EXTT10=
EXTT11=
EXTT12=
PLAYORDER=
